<?xml version="1.0" standalone="no"?><!-- Generator: Gravit.io --><svg xmlns="http://www.w3.org/2000/svg" xmlns:xlink="http://www.w3.org/1999/xlink" style="isolation:isolate" width="500" height="500"><circle vector-effect="non-scaling-stroke" cx="0" cy="0" r="1" fill="rgb(250,250,250)" transform="matrix(250,0,0,250,250,250)" stroke-width="0" stroke="rgba(0,0,0,0)"/><path d=" M 137.349609375 268.1640625 Q 143.70703125 268.017578125 140.923828125 263.740234375 L 131.9296875 249.35546875 L 124.72265625 256.357421875 L 124.751953125 264.970703125 Q 124.751953125 266.875 125.396484375 267.34375 Q 126.509765625 268.1640625 129.615234375 268.1640625 L 129.615234375 271.38671875 L 113.208984375 271.38671875 L 113.208984375 268.1640625 Q 115.9921875 268.1640625 116.841796875 267.6220703125 Q 117.69140625 267.080078125 117.92578125 266.46484375 Q 118.16015625 265.849609375 118.16015625 264.970703125 L 118.130859375 233.857421875 Q 118.130859375 231.953125 117.486328125 231.484375 Q 116.314453125 230.6640625 113.208984375 230.6640625 L 113.208984375 227.44140625 L 129.615234375 227.44140625 L 129.615234375 230.6640625 Q 126.83203125 230.6640625 126.01171875 231.2060546875 Q 125.19140625 231.748046875 124.95703125 232.36328125 Q 124.72265625 232.978515625 124.72265625 233.857421875 L 124.72265625 251.376953125 L 142.154296875 233.916015625 Q 143.765625 232.36328125 142.564453125 231.513671875 Q 141.36328125 230.6640625 138.580078125 230.6640625 L 138.580078125 227.44140625 L 154.25390625 227.44140625 L 154.25390625 230.6640625 Q 152.291015625 230.78125 151.0166015625 231.4111328125 Q 149.7421875 232.041015625 148.27734375 233.505859375 L 136.236328125 245.1953125 L 148.365234375 263.798828125 Q 149.830078125 266.142578125 151.4853515625 267.1533203125 Q 153.140625 268.1640625 155.337890625 268.1640625 Q 155.54296875 268.1640625 155.71875 268.1640625 L 155.71875 271.38671875 L 137.349609375 271.38671875 L 137.349609375 268.1640625 Z  M 159.234375 268.1640625 Q 162.017578125 268.1640625 162.8671875 267.6220703125 Q 163.716796875 267.080078125 163.951171875 266.46484375 Q 164.185546875 265.849609375 164.185546875 264.970703125 L 164.15625 233.857421875 Q 164.15625 231.953125 163.482421875 231.484375 Q 162.33984375 230.6640625 159.234375 230.6640625 L 159.234375 227.44140625 L 175.69921875 227.44140625 L 175.69921875 230.6640625 Q 172.916015625 230.6640625 172.06640625 231.2060546875 Q 171.216796875 231.748046875 170.982421875 232.36328125 Q 170.748046875 232.978515625 170.748046875 233.857421875 L 170.77734375 264.970703125 Q 170.77734375 266.875 171.451171875 267.34375 Q 172.59375 268.1640625 175.69921875 268.1640625 L 175.69921875 271.38671875 L 159.234375 271.38671875 L 159.234375 268.1640625 Z  M 179.9765625 268.10546875 Q 182.84765625 268.10546875 183.697265625 267.548828125 Q 184.546875 266.9921875 184.7958984375 266.3623046875 Q 185.044921875 265.732421875 185.044921875 264.853515625 L 185.044921875 233.974609375 Q 185.044921875 232.0703125 184.341796875 231.572265625 Q 183.169921875 230.72265625 179.9765625 230.72265625 L 179.9765625 227.44140625 L 190.083984375 227.44140625 L 215.220703125 259.345703125 L 215.220703125 233.974609375 Q 215.220703125 232.041015625 214.546875 231.572265625 Q 213.375 230.72265625 210.2109375 230.72265625 L 210.2109375 227.44140625 L 224.9765625 227.44140625 L 224.9765625 230.72265625 Q 222.10546875 230.72265625 221.255859375 231.279296875 Q 220.40625 231.8359375 220.1572265625 232.4658203125 Q 219.908203125 233.095703125 219.908203125 233.974609375 L 219.908203125 271.38671875 L 216.3046875 271.38671875 L 189.732421875 237.666015625 L 189.732421875 264.853515625 Q 189.732421875 266.7578125 190.435546875 267.255859375 Q 191.607421875 268.10546875 194.830078125 268.10546875 L 194.830078125 271.38671875 L 179.9765625 271.38671875 L 179.9765625 268.10546875 Z  M 231.744140625 262.5244140625 Q 231.744140625 262.5244140625 231.01171875 261.27197265625 Q 230.279296875 260.01953125 229.458984375 256.7529296875 Q 228.638671875 253.486328125 228.638671875 250.0732421875 Q 228.638671875 246.66015625 229.1806640625 243.90625 Q 229.72265625 241.15234375 230.8359375 238.6328125 Q 233.208984375 233.271484375 238.072265625 230.0634765625 Q 242.935546875 226.85546875 250.025390625 226.85546875 Q 257.115234375 226.85546875 261.83203125 230.37109375 Q 266.548828125 233.88671875 266.548828125 238.955078125 Q 266.548828125 242.412109375 263.794921875 243.61328125 Q 262.9453125 243.994140625 261.978515625 243.994140625 Q 260.103515625 243.994140625 258.931640625 242.822265625 Q 257.759765625 241.650390625 257.759765625 240.09765625 Q 257.759765625 236.9921875 260.25 235.8203125 Q 259.078125 233.359375 256.265625 231.9384765625 Q 253.453125 230.517578125 250.494140625 230.517578125 Q 244.25390625 230.517578125 240.3134765625 235.17578125 Q 236.373046875 239.833984375 236.373046875 249.1357421875 Q 236.373046875 258.4375 240.474609375 263.30078125 Q 244.576171875 268.1640625 250.435546875 268.1640625 Q 255.2109375 268.1640625 257.8330078125 265.76171875 Q 260.455078125 263.359375 260.455078125 260.4736328125 Q 260.455078125 257.587890625 259.13671875 256.8408203125 Q 257.818359375 256.09375 253.1015625 256.09375 L 253.1015625 252.197265625 L 266.51953125 252.197265625 L 266.51953125 271.38671875 L 262.59375 271.38671875 L 261.509765625 267.87109375 Q 258.990234375 270.5078125 253.716796875 271.5625 Q 251.783203125 271.97265625 249.322265625 271.97265625 Q 246.861328125 271.97265625 244.3271484375 271.4306640625 Q 241.79296875 270.888671875 239.478515625 269.74609375 Q 237.1640625 268.603515625 235.1865234375 266.81640625 Q 233.208984375 265.029296875 231.744140625 262.5244140625 Z  M 273.609375 268.10546875 Q 276.48046875 268.10546875 277.330078125 267.548828125 Q 278.1796875 266.9921875 278.4287109375 266.3623046875 Q 278.677734375 265.732421875 278.677734375 264.853515625 L 278.677734375 233.974609375 Q 278.677734375 232.0703125 277.974609375 231.572265625 Q 276.802734375 230.72265625 273.609375 230.72265625 L 273.609375 227.44140625 L 283.716796875 227.44140625 L 308.853515625 259.345703125 L 308.853515625 233.974609375 Q 308.853515625 232.041015625 308.1796875 231.572265625 Q 307.0078125 230.72265625 303.84375 230.72265625 L 303.84375 227.44140625 L 318.609375 227.44140625 L 318.609375 230.72265625 Q 315.73828125 230.72265625 314.888671875 231.279296875 Q 314.0390625 231.8359375 313.7900390625 232.4658203125 Q 313.541015625 233.095703125 313.541015625 233.974609375 L 313.541015625 271.38671875 L 309.9375 271.38671875 L 283.365234375 237.666015625 L 283.365234375 264.853515625 Q 283.365234375 266.7578125 284.068359375 267.255859375 Q 285.240234375 268.10546875 288.462890625 268.10546875 L 288.462890625 271.38671875 L 273.609375 271.38671875 L 273.609375 268.10546875 Z  M 322.359375 268.1640625 Q 325.142578125 268.1640625 325.9921875 267.6220703125 Q 326.841796875 267.080078125 327.076171875 266.46484375 Q 327.310546875 265.849609375 327.310546875 264.970703125 L 327.28125 233.857421875 Q 327.28125 231.953125 326.607421875 231.484375 Q 325.46484375 230.6640625 322.359375 230.6640625 L 322.359375 227.44140625 L 338.82421875 227.44140625 L 338.82421875 230.6640625 Q 336.041015625 230.6640625 335.19140625 231.2060546875 Q 334.341796875 231.748046875 334.107421875 232.36328125 Q 333.873046875 232.978515625 333.873046875 233.857421875 L 333.90234375 264.970703125 Q 333.90234375 266.875 334.576171875 267.34375 Q 335.71875 268.1640625 338.82421875 268.1640625 L 338.82421875 271.38671875 L 322.359375 271.38671875 L 322.359375 268.1640625 Z  M 367.388671875 268.1640625 Q 373.74609375 268.017578125 370.962890625 263.740234375 L 361.96875 249.35546875 L 354.76171875 256.357421875 L 354.791015625 264.970703125 Q 354.791015625 266.875 355.435546875 267.34375 Q 356.548828125 268.1640625 359.654296875 268.1640625 L 359.654296875 271.38671875 L 343.248046875 271.38671875 L 343.248046875 268.1640625 Q 346.03125 268.1640625 346.880859375 267.6220703125 Q 347.73046875 267.080078125 347.96484375 266.46484375 Q 348.19921875 265.849609375 348.19921875 264.970703125 L 348.169921875 233.857421875 Q 348.169921875 231.953125 347.525390625 231.484375 Q 346.353515625 230.6640625 343.248046875 230.6640625 L 343.248046875 227.44140625 L 359.654296875 227.44140625 L 359.654296875 230.6640625 Q 356.87109375 230.6640625 356.05078125 231.2060546875 Q 355.23046875 231.748046875 354.99609375 232.36328125 Q 354.76171875 232.978515625 354.76171875 233.857421875 L 354.76171875 251.376953125 L 372.193359375 233.916015625 Q 373.8046875 232.36328125 372.603515625 231.513671875 Q 371.40234375 230.6640625 368.619140625 230.6640625 L 368.619140625 227.44140625 L 384.29296875 227.44140625 L 384.29296875 230.6640625 Q 382.330078125 230.78125 381.0556640625 231.4111328125 Q 379.78125 232.041015625 378.31640625 233.505859375 L 366.275390625 245.1953125 L 378.404296875 263.798828125 Q 379.869140625 266.142578125 381.5244140625 267.1533203125 Q 383.1796875 268.1640625 385.376953125 268.1640625 Q 385.58203125 268.1640625 385.7578125 268.1640625 L 385.7578125 271.38671875 L 367.388671875 271.38671875 L 367.388671875 268.1640625 Z " fill-rule="evenodd" fill="rgb(46,46,46)" stroke-width="1" stroke="rgba(0,0,0,0)" stroke-linejoin="miter" stroke-linecap="square"/><line x1="113.89203960905351" y1="220" x2="386.10796039094646" y2="220" stroke-width="5" stroke="rgb(46,46,46)" stroke-linejoin="miter" stroke-linecap="square"/><line x1="113.89203960905351" y1="280" x2="386.10796039094646" y2="280" stroke-width="5" stroke="rgb(46,46,46)" stroke-linejoin="miter" stroke-linecap="square"/><path d=" M 250 287 L 255.8825529255335 303.9233525134745 L 273.7954264353333 304.28838927729265 L 259.5181705741333 315.112633098034 L 264.7063823138337 332.2615907386914 L 250 322.0279888089511 L 235.29361768616627 332.26159073869144 L 240.4818294258667 315.11263309803405 L 226.2045735646667 304.2883892772927 L 244.1174470744665 303.9233525134745 L 250 287 Z " fill="rgb(237,3,3)" stroke-width="1" stroke="rgba(0,0,0,0)" stroke-linejoin="miter" stroke-linecap="square"/><path d=" M 200 287 L 205.8825529255335 303.9233525134745 L 223.7954264353333 304.28838927729265 L 209.5181705741333 315.112633098034 L 214.70638231383373 332.2615907386914 L 200 322.0279888089511 L 185.29361768616627 332.26159073869144 L 190.4818294258667 315.11263309803405 L 176.2045735646667 304.2883892772927 L 194.1174470744665 303.9233525134745 L 200 287 Z " fill="rgb(237,3,3)" stroke-width="1" stroke="rgba(0,0,0,0)" stroke-linejoin="miter" stroke-linecap="square"/><path d=" M 300 287 L 305.8825529255335 303.9233525134745 L 323.7954264353333 304.28838927729265 L 309.5181705741333 315.112633098034 L 314.7063823138337 332.2615907386914 L 300 322.0279888089511 L 285.2936176861663 332.26159073869144 L 290.4818294258667 315.11263309803405 L 276.2045735646667 304.2883892772927 L 294.1174470744665 303.9233525134745 L 300 287 Z " fill="rgb(237,3,3)" stroke-width="1" stroke="rgba(0,0,0,0)" stroke-linejoin="miter" stroke-linecap="square"/><path d=" M 210.69921875 197.4765625 L 224.4296875 178.9609375 L 227.9453125 178.9609375 L 227.9453125 196.34375 Q 227.9453125 197.3984375 228.53125 197.4765625 Q 228.74609375 197.515625 229.01953125 197.515625 L 232.10546875 197.515625 L 232.10546875 199.83984375 L 228.921875 199.83984375 Q 228.31640625 199.83984375 228.130859375 200.083984375 Q 227.9453125 200.328125 227.9453125 201.08984375 L 227.9453125 204.09765625 Q 227.9453125 205.328125 228.453125 205.62109375 Q 229.3125 206.1484375 231.65625 206.1484375 L 231.65625 208.2578125 L 219.17578125 208.2578125 L 219.17578125 206.1484375 Q 222.203125 206.1484375 222.798828125 205.845703125 Q 223.39453125 205.54296875 223.521484375 205.103515625 Q 223.6484375 204.6640625 223.6484375 203.921875 L 223.6484375 199.83984375 L 212.125 199.83984375 L 210.69921875 197.4765625 Z  M 223.62890625 197.515625 L 223.6484375 198.08203125 L 223.6484375 184.68359375 L 214.29296875 197.515625 L 223.62890625 197.515625 Z  M 247.96484375 208.6484375 Q 242.984375 208.6484375 239.76171875 204.634765625 Q 236.5390625 200.62109375 236.5390625 193.4140625 Q 236.5390625 186.20703125 239.99609375 182.1640625 Q 243.08203125 178.5703125 247.96484375 178.5703125 Q 252.84765625 178.5703125 255.93359375 182.1640625 Q 259.390625 186.20703125 259.390625 193.4140625 Q 259.390625 200.62109375 256.16796875 204.634765625 Q 252.9453125 208.6484375 247.96484375 208.6484375 Z  M 247.96484375 206.3046875 Q 250.4453125 206.3046875 252.10546875 203.82421875 Q 254.1953125 200.6796875 254.1953125 193.853515625 Q 254.1953125 187.02734375 252.45703125 183.970703125 Q 250.71875 180.9140625 247.96484375 180.9140625 Q 243.6484375 180.9140625 242.2421875 187.6328125 Q 241.734375 190.015625 241.734375 193.033203125 Q 241.734375 196.05078125 242.0078125 198.033203125 Q 242.28125 200.015625 242.75 201.4609375 Q 243.5703125 204.078125 244.986328125 205.19140625 Q 246.40234375 206.3046875 247.96484375 206.3046875 Z  M 273.84375 196.578125 L 264.68359375 196.578125 L 264.68359375 193.39453125 L 273.84375 193.39453125 L 273.84375 184.234375 L 277.02734375 184.234375 L 277.02734375 193.39453125 L 286.1875 193.39453125 L 286.1875 196.578125 L 277.02734375 196.578125 L 277.02734375 205.73828125 L 273.84375 205.73828125 L 273.84375 196.578125 Z " fill-rule="evenodd" fill="rgb(237,3,3)" stroke-width="1" stroke="rgba(0,0,0,0)" stroke-linejoin="miter" stroke-linecap="square"/><path d=" M 140 250 C 140 189.28934675472362 189.2893467547236 140 249.99999999999997 140 C 310.7106532452764 140 360 189.2893467547236 360 249.99999999999997 C 360.00000000000006 310.7106532452763 310.7106532452764 360 250.00000000000003 360 C 189.28934675472365 360.00000000000006 140 310.7106532452764 140 250 Z " fill="none" stroke="none"/><mask id="_mask_aMULbr0VihpsNQ4IWQudKjz8NBPLQmpj"><path d=" M 140 250 C 140 189.28934675472362 189.2893467547236 140 249.99999999999997 140 C 310.7106532452764 140 360 189.2893467547236 360 249.99999999999997 C 360.00000000000006 310.7106532452763 310.7106532452764 360 250.00000000000003 360 C 189.28934675472365 360.00000000000006 140 310.7106532452764 140 250 Z " fill="white" stroke="none"/></mask><path d=" M 140 250 C 140 189.28934675472362 189.2893467547236 140 249.99999999999997 140 C 310.7106532452764 140 360 189.2893467547236 360 249.99999999999997 C 360.00000000000006 310.7106532452763 310.7106532452764 360 250.00000000000003 360 C 189.28934675472365 360.00000000000006 140 310.7106532452764 140 250 Z " fill="none" stroke="none" stroke-width="0" mask="url(#_mask_aMULbr0VihpsNQ4IWQudKjz8NBPLQmpj)"/><path d=" M 168.59782485927332 174.31222236443298 L 179.6384557597192 184.26318205868967 L 178.16084939250368 185.9025924289267 L 167.1202184920578 175.95163273467003 L 168.59782485927332 174.31222236443298 Z  M 173.2779461984635 171.79127534981353 L 172.15339621987468 170.54358250166854 L 180.69138739584366 162.8482608458603 L 181.81593737443248 164.0959536940053 L 178.35576592928618 167.21461846020796 L 187.18217564495404 177.00755651250884 L 185.5500193029039 178.4786247984535 L 176.723609587236 168.6856867461526 L 173.2779461984635 171.79127534981353 Z  M 185.21034199039508 161.66026145582222 L 184.27977387348824 160.261907753266 L 193.84874077993408 153.8940084881535 L 194.77930889684092 155.29236219070972 L 190.90131636126347 157.87306563120137 L 198.20519402303225 168.84851620359035 L 196.37595226096744 170.0658291472185 L 189.07207459919863 159.0903785748295 L 185.21034199039508 161.66026145582222 Z  M 206.60479314943075 147.61052463184944 L 207.32269001788615 149.1290680734138 L 201.58400840732315 151.8420504251349 L 203.6667440896444 156.2475921538594 L 207.966340927097 154.2149422995699 L 208.6842377955524 155.7334857411343 L 204.38464095809982 157.76613559542378 L 207.21866406089768 163.76085069322727 L 205.24102609048828 164.69578614982038 L 198.88847356845832 151.2584424401636 L 206.60479314943075 147.61052463184944 Z  M 229.67244404183856 151.97020491324636 L 223.77318699980978 153.45803293668118 L 223.4048319938812 157.42843192924653 L 221.17012146110625 157.99203933459262 L 223.0081440909907 142.0386312442566 L 225.04400326279838 141.52517534531844 L 234.0954599239783 154.73219141807814 L 231.81340382906828 155.30773965828325 L 229.67244404183856 151.97020491324636 Z  M 228.74573802860616 150.5320696007834 L 225.35017629523907 145.2549543619529 L 224.60388475088115 144.01303157710475 L 224.52636351408898 145.46272488849996 L 223.93542891568381 151.74525842246058 L 228.74573802860616 150.5320696007834 Z  M 236.76342037379584 139.62847359843343 Q 237.27843808207285 139.5770549671836 238.39788534830183 139.3867775541422 Q 239.5950711365349 139.18873883827064 240.3044351498221 139.11791694994542 Q 242.78235053870208 138.87052542223407 244.24024466715173 139.90757943610024 Q 245.69813879560138 140.9446334499664 245.9426198347514 143.39339689309486 Q 246.10366686847723 145.0064712246795 245.57097445820943 146.20791293876485 Q 245.0382820479416 147.4093546528502 243.82983742325695 148.13357579317352 Q 242.6213927985723 148.85779693349687 240.79453753147644 149.04018755000564 Q 239.98800036568412 149.12071106686855 239.24560375523032 149.155574182753 L 238.87537561285717 149.1827230559458 L 239.38665143679395 154.30374819296443 L 237.21969013593028 154.52009450935515 L 235.7431022724923 139.73034069807926 L 236.76342037379584 139.62847359843343 Z  M 240.50910572520152 147.45915996602105 Q 241.5780104027576 147.35244205210634 242.34183687291483 146.9915716372593 Q 243.10566334307202 146.63070122241226 243.51488624014968 145.8145251749335 Q 243.92410913722733 144.9983491274547 243.78731617484578 143.62820767713285 Q 243.61947800114356 141.94711213879464 242.69062972556858 141.24489885320824 Q 241.7617814499936 140.54268556762182 240.0709685964049 140.7114939041778 Q 238.78828298333764 140.83955540087544 238.0682001185205 141.09791676752164 L 238.71141809057002 147.54049677860962 Q 239.44020104764544 147.56587787993575 240.50910572520152 147.45915996602105 Z  M 252.3553027529979 138.83646794872305 Q 252.8722372194698 138.8622724609618 254.0075359781237 138.84072241733767 Q 255.22086258077337 138.82306739442882 255.9328666572347 138.8586094584558 Q 258.42000418459975 138.9827632437555 259.7073157440027 140.22524675128037 Q 260.9946273034057 141.46773025880526 260.8719341508742 143.92560734467187 Q 260.7911124710321 145.544685107584 260.0855413398562 146.65346496632625 Q 259.3799702086804 147.76224482506854 258.0771980317507 148.2985463503679 Q 256.77442585482106 148.83484787566726 254.94077152092055 148.74331488885807 Q 254.13123263946449 148.702904048937 253.39191563186236 148.6268874301439 L 253.0217702504719 148.59863260124683 L 252.7651857608525 153.73871682446787 L 250.59015960947053 153.63014312202932 L 251.33118730055344 138.78534580183495 L 252.3553027529979 138.83646794872305 Z  M 254.89382419909077 147.13741467828254 Q 255.96670705403255 147.1909712131177 256.7757351648323 146.94780080217 Q 257.5847632756321 146.70463039122234 258.11090063016906 145.9584493112347 Q 258.637037984706 145.212268231247 258.70568772481295 143.83702748082166 Q 258.78991754778093 142.14967535441323 257.9759250888195 141.3170416448827 Q 257.1619326298581 140.48440793535212 255.4648270229502 140.3996912347947 Q 254.17736759702007 140.33542339299248 253.4268524048615 140.48373682568723 L 253.1040525630823 146.95029439683628 Q 253.820941344149 147.08385814344737 254.89382419909077 147.13741467828254 Z  M 274.238171316493 155.55993862203098 Q 274.43498838161224 156.21698548730092 274.6069928211932 156.74952761546754 L 272.18460019899476 156.2633302113162 Q 272.08325811819776 156.02386144155088 271.9897048627457 155.59670867165025 L 271.8732267406708 155.08527159110062 Q 271.76817708195256 154.66577176672587 271.5869716374781 153.58356180033502 Q 271.40006894630267 152.43048565543157 271.2205644259923 151.66236917017207 Q 271.0410599056819 150.89425268491257 270.7168724951315 150.25148290634974 Q 270.3926850845811 149.60871312778693 269.8815197636697 149.3268304430589 Q 269.3127705165629 149.23259778851133 267.3403875909785 148.83672164125767 L 266.0951072831126 155.04111064989235 L 263.95995489279545 154.61256511184592 L 266.88482623318407 140.03991068107132 L 267.8135696496 140.22631838147714 Q 268.3306020669862 140.33009174046597 269.3302456318696 140.4610070933205 Q 270.8794890950677 140.68231164298226 271.5592909771866 140.81875439276385 Q 273.8955115298206 141.2876562370837 275.0064212551462 142.5514865666824 Q 276.11733098047176 143.81531689628105 275.69647235790603 145.91217058901407 Q 275.3813088231992 147.48241718996482 274.49301634364497 148.3599290617285 Q 273.6047238640907 149.2374409334922 272.2524673157858 149.4242077448485 Q 272.62375406863254 149.80750045028316 272.88762782447884 150.42820431679385 Q 273.15150158032515 151.04890818330458 273.32915231167493 151.72700914125937 Q 273.50680304302466 152.40511009921417 273.7301506428237 153.47585763229358 Q 274.0528166846852 154.94503391208553 274.238171316493 155.55993862203098 Z  M 267.64402075246426 147.32392308668318 Q 268.1399481222335 147.48322276317808 269.88253886231297 147.8329774175478 Q 271.34746404490727 148.1270019346828 272.27191268846946 147.59041980832322 Q 273.19636133203164 147.0538376819636 273.49230757803684 145.5793378249733 Q 273.6767935495725 144.66016908295333 273.4818812283461 144.01844509371253 Q 273.2869689071196 143.37672110447176 272.66768449943345 142.96357366164003 Q 272.0484000917473 142.55042621880833 270.92816318741046 142.32558394099922 Q 269.5877087719647 142.05654189917635 268.70097163105413 142.05785216886056 L 267.64402075246426 147.32392308668318 Z  M 279.5665176766596 150.5731811298313 Q 280.4043101868717 148.23848009339025 281.85085197319063 146.91075101944665 Q 283.29739375950953 145.58302194550305 285.06787386192207 145.28975405230454 Q 286.8383539643346 144.99648615910604 288.6767012371228 145.6561653010054 Q 290.48747330081926 146.30594925577623 291.55488708624523 147.65389089619254 Q 292.62230087167126 149.00183253660882 292.81824265322723 150.84114123269427 Q 293.0141844347832 152.6804499287797 292.2654486087274 154.76697408339436 Q 291.4177609113868 157.12925032892724 289.98760167455873 158.48360886487245 Q 288.55744243773063 159.83796740081766 286.7895572802631 160.15291716245355 Q 285.0216721227955 160.46786692408946 283.12817443182365 159.78839740793313 Q 281.29901889539934 159.13201666174328 280.2435012203389 157.73646714165255 Q 279.18798354527837 156.3409176215618 279.01277788506957 154.47273624391204 Q 278.83757222486076 152.6045548662623 279.5665176766596 150.5731811298313 Z  M 290.14853544196274 154.1318374894154 Q 290.6861739426107 152.63358446209298 290.66597720454126 151.21529013541266 Q 290.6457804664718 149.79699580873233 289.9967235528742 148.72887065834013 Q 289.3476666392765 147.66074550794792 288.0516318119608 147.1956717129089 Q 286.82913087555664 146.75698508354583 285.6137816378599 147.02120055148623 Q 284.39843240016324 147.2854160194266 283.36287692885196 148.33523577373353 Q 282.3273214575406 149.38505552804043 281.6643439199318 151.2325945371926 Q 281.1300038149933 152.72165582815109 281.16363643222644 154.1603345507963 Q 281.1972690494595 155.59901327344153 281.87944278742117 156.70496054543634 Q 282.5616165253828 157.8109078174311 283.90361003451824 158.2924735910176 Q 285.18126138910606 158.75095059463766 286.36679219814823 158.43972126873075 Q 287.5523230071904 158.1284919428238 288.5238880493364 157.0401466161498 Q 289.49545309148243 155.95180128947575 290.14853544196274 154.1318374894154 Z  M 300.63331666956935 151.07593007302603 L 299.0279213318924 161.5536361650287 L 298.5249371042162 163.88639797878022 L 300.1997047542877 162.1788078427498 L 307.8708025137756 154.93728455306788 L 309.8869592846616 156.0129475867938 L 298.04888336752026 166.68733929445258 L 296.43768116172674 165.82772823758611 L 298.591311734954 149.98647648758566 L 300.63331666956935 151.07593007302603 Z  M 321.0027847186381 164.29303435396682 L 320.0053072523247 165.64447388345133 L 314.87455136422363 161.85753908401745 L 312.09089331869797 165.62899823606725 L 315.854495264181 168.40685699399808 L 314.8570177978676 169.75829652348258 L 311.0934158523846 166.98043776555176 L 308.0603884402806 171.0897567999727 L 313.76472040775593 175.30003959383026 L 312.74984507865804 176.67505074301508 L 305.2933560467929 171.17152681550704 L 314.1198717661472 159.21285842088247 L 321.0027847186381 164.29303435396682 Z  M 326.80306825531716 169.5418385397927 Q 327.19232985141275 169.93973826988247 327.92410981141603 170.59000391613344 Q 328.02669861975687 170.6809045235924 328.50193078580287 171.11082357510992 Q 328.9771629518488 171.54074262662738 329.3732536987531 171.94562305373626 Q 331.8385771406919 174.46565467763807 331.74490642802874 177.02320914324093 Q 331.6512357153656 179.58076360884382 329.18006897059763 181.9982829951217 Q 327.4069719277415 183.73288730053014 325.518068056549 184.37856428705186 Q 323.6291641853565 185.02424127357358 321.8215847963474 184.55207831709458 Q 320.0140054073383 184.07991536061553 318.4911047769994 182.5232199253521 Q 318.17696383979944 182.20210786247264 317.3450198108221 181.23998404351767 Q 316.417467670523 180.18013046629505 315.99406032038394 179.7473272511097 L 315.4135825016449 179.15396800448462 L 326.03820336474337 168.76000047365142 L 326.80306825531716 169.5418385397927 Z  M 319.7521861980931 181.5081011942234 Q 321.3031611627189 183.02367017842423 323.2382826400326 182.88607339786373 Q 325.1734041173463 182.74847661730323 327.36534298134956 180.60412326337314 Q 328.91505771959385 179.0880517838429 329.43374137461495 177.76093290513944 Q 329.95242502963606 176.43381402643593 329.5516172075294 175.20019118344783 Q 329.15080938542275 173.96656834045976 327.89424563662294 172.68212008894193 Q 327.08840584119696 171.85839784068594 326.4440409258129 171.4231698861338 L 318.1160693820044 179.57034680090646 Q 318.36025180280274 179.9735602197007 318.81029379822974 180.49643053818767 Q 319.2603357936566 181.01930085667468 319.7521861980931 181.5081011942234 Z " fill-rule="evenodd" fill="rgb(46,46,46)" stroke-width="0" stroke="rgba(0,0,0,0)" stroke-linejoin="miter" stroke-linecap="square"/><path d=" M 189.91024385010752 340.89013873760956 L 187.92187352171698 349.58773312434266 L 186.96637875829458 352.69124833673914 L 189.212915435466 350.35905976444553 L 195.82891651963223 344.4262206071719 L 198.3355498456774 345.9237963564625 L 192.23821531363714 359.59488233844127 L 190.36033616636587 358.47295268010987 L 194.31883034531796 350.0764654857193 L 196.1292440267689 346.4940261532513 L 193.22060637972626 349.42033698017735 L 185.7414100829015 355.8840344318663 L 184.7354033968633 355.28300068633166 L 186.76539681098117 345.5637037796631 L 187.87498058670957 341.57393282891724 L 185.60010573298695 344.8675063577521 L 180.1661350811788 352.38247739202507 L 178.35031443176393 351.309000039113 L 187.26947629925724 339.312425155581 L 189.91024385010752 340.89013873760956 Z  M 204.83949594175203 361.11026807818484 L 199.21710150114004 358.7857150825705 L 196.5532194028499 361.7527819400858 L 194.42338780094872 360.87221290803933 L 205.4143927314319 349.1637814373913 L 207.35470541960456 349.9659947504846 L 206.74211719330086 365.96533464000333 L 204.56716204051196 365.06610948439646 L 204.83949594175203 361.11026807818484 Z  M 204.95349547401156 359.4032176048365 L 205.37574573725982 353.1422680407376 L 205.51751710873805 351.7003165329072 L 204.5905959518132 352.8176514907882 L 200.36894270381754 357.50775545110923 L 204.95349547401156 359.4032176048365 Z  M 215.02345452636166 353.11056621681246 Q 215.5561223209362 353.27216388394754 216.51047255124143 353.4902532199385 Q 216.64413828442 353.5205988259967 217.2675791828967 353.66891419475195 Q 217.8910200813734 353.8172295635072 218.43303292497555 353.9816622774341 Q 221.80659562394754 355.00511416928964 222.95471808298328 357.2923994304658 Q 224.102840542019 359.579684691642 223.0992339777064 362.8878320474206 Q 222.37913209257815 365.261474500437 221.03370164505216 366.7361519283512 Q 219.6882711975262 368.21082935626544 217.87643104799938 368.66636901162406 Q 216.06459089847257 369.12190866698256 213.9806449653126 368.48969323240146 Q 213.5507727100419 368.35928107997665 212.35859671078566 367.91596460481605 Q 211.03559002514265 367.43295747456955 210.45619698542998 367.2571845734753 L 209.66186781808202 367.01620559616856 L 213.97680903526788 352.79304097612595 L 215.02345452636166 353.11056621681246 Z  M 214.59794847040874 366.9931208915132 Q 216.68672458850034 367.5757760341643 218.31707297751421 366.52430461923126 Q 219.9474213665281 365.47283320429824 220.83762605916698 362.5384878096245 Q 221.46700644695625 360.46388692549215 221.28336472861403 359.05089259730767 Q 221.09972301027182 357.6378982691231 220.1549299367034 356.74916980826396 Q 219.210136863135 355.86044134740484 217.49064784205234 355.3387927377056 Q 216.38793205679278 355.00425721626806 215.61365748396867 354.93264435094625 L 212.23144666129934 366.0812878409008 Q 212.63947845088737 366.3173305794213 213.28554669677152 366.5592540988706 Q 213.93161494265564 366.80117761831985 214.59794847040874 366.9931208915132 Z  M 235.79154963347915 358.12715803135734 L 235.46300990067283 359.7744017114556 L 229.20923011518335 358.5270967956269 L 228.2923750468866 363.124055902878 L 232.8797571559976 364.0390008564491 L 232.55121742319128 365.6862445365474 L 227.96383531408028 364.7712995829763 L 226.96484531258199 369.780069610252 L 233.91774596229925 371.1668129010508 L 233.58347588531606 372.8427875755694 L 224.4949046503551 371.0300887009578 L 227.40209926274593 356.4538975317158 L 235.79154963347915 358.12715803135734 Z  M 247.65793035254848 358.8292842761158 L 246.9231613246126 373.6743926958003 L 244.7188285369328 373.5652877021646 L 245.45359756486863 358.7201792824801 L 247.65793035254848 358.8292842761158 Z  M 262.5077585468412 358.3261263913947 L 263.24252757477717 373.1712348110792 L 261.22351480022087 373.2711672610022 L 254.61185911400844 364.1434962004008 L 253.12613462865244 361.7824158241916 L 253.37062892852845 364.3515954526157 L 253.8302216450823 373.63710347859444 L 251.8307162403285 373.73607039760026 L 251.09594721239256 358.89096197791577 L 253.08569893224512 358.7924778243685 L 259.920527088809 368.28065083658703 L 261.2386062447397 370.4153670225036 L 260.97991499510545 367.95444345891025 L 260.50825314208737 358.42509331040054 L 262.5077585468412 358.3261263913947 Z  M 277.34704023624454 355.17111978578254 Q 278.5594848310913 354.8670176574986 279.3978849901378 354.7976859654964 Q 280.23628514918425 354.7283542734942 280.95870476580996 354.7585893155537 L 281.2618778507449 354.76309316641505 L 281.4291746817225 356.7146189311397 Q 281.0335622563574 356.6225512080492 280.68890561290607 356.57307752213467 Q 280.34424896945467 356.5236038362201 279.61951549117504 356.5644259536957 Q 278.89478201289546 356.6052480711713 277.9191430029797 356.8499552525248 Q 276.4698928232019 357.2134523277392 275.57532513817205 358.1627296735276 Q 274.6807574531423 359.112007019316 274.4284051669779 360.5143606037821 Q 274.17605288081353 361.9167141882482 274.60132070083563 363.61224217635424 Q 275.02421272298056 365.298297941063 275.9204062338711 366.4629168972491 Q 276.8165997447617 367.6275358534351 278.0651613134971 368.0896197938356 Q 279.31372288223247 368.551703734236 280.753500838613 368.1905824568988 Q 281.463917593406 368.0123976161074 282.16239342258973 367.7063222753975 Q 282.86086925177335 367.4002469346875 283.36865077785035 367.05642205689094 Q 283.87643230392734 366.71259717909436 284.0751631865996 366.4211172748757 L 284.53366120879116 368.20899169907693 Q 283.97973743277817 368.6096963694244 283.5761039119034 368.8669904333723 Q 283.1724703910286 369.12428449732016 282.5414725405084 369.39833301885517 Q 281.9104746899882 369.6723815403901 281.0863912544283 369.8790759557081 Q 279.06880767081606 370.3851209035556 277.320439219346 369.8571030167141 Q 275.5720707678759 369.3290851298726 274.3298623899814 367.88880057300935 Q 273.08765401208683 366.4485160161462 272.5435962982038 364.2793768581781 Q 271.9662774140397 361.97762657264866 272.4527188380299 360.06349421172695 Q 272.9391602620201 358.1493618508051 274.24323902639446 356.88594161662957 Q 275.54731779076883 355.62252138245407 277.34704023624454 355.17111978578254 Z  M 285.6541092437084 352.8266024714932 L 287.84660595156583 358.9601886558718 L 294.4491769866241 356.6000497709517 L 292.2566802787666 350.4664635865731 L 294.30733952781674 349.7334399496133 L 299.31030802760546 363.729419218915 L 297.25964877855534 364.4624428558748 L 295.0145584465214 358.1817241693222 L 288.41198741146314 360.54186305424224 L 290.6570777434971 366.8225817407949 L 288.606418494447 367.5556053777547 L 283.60344999465826 353.559626108453 L 285.6541092437084 352.8266024714932 Z  M 299.341603714039 347.061745680345 L 305.6832972958731 360.50421762678127 L 303.6872403577032 361.44588829004965 L 297.34554677586914 348.00341634361337 L 299.341603714039 347.061745680345 Z  M 312.2211561571685 339.61674428866155 L 319.84426749636657 352.3762624232461 L 318.1089059629507 353.4130456342934 L 307.9840405951499 348.46173558669255 L 305.5632211061209 347.0754777496204 L 306.986096014901 349.22858908435103 L 311.75429706280937 357.2095754602541 L 310.03570230749415 358.2363414422091 L 302.41259096829606 345.4768233076246 L 304.122802334561 344.45506594021566 L 314.61404622517114 349.61976386626 L 316.7805247402881 350.8849581988625 L 315.3959778134147 348.83408137277763 L 310.5025614018532 340.6435102706166 L 312.2211561571685 339.61674428866155 Z  M 327.5424715016037 341.5468643423191 L 322.8352122229521 345.40128725097776 L 324.1895710639424 349.1516826568501 L 322.4064038251595 350.61178507489734 L 317.28846235912124 335.3902138013733 L 318.91295793682605 334.06003575103364 L 332.7200617952388 342.1667011739036 L 330.89911558953247 343.65773796521455 L 327.5424715016037 341.5468643423191 Z  M 326.09232587970666 340.6390676210169 L 320.7755815723283 337.305898753563 L 319.5721462560979 336.4990117030073 L 320.1182275478617 337.8441568483516 L 322.25398284029257 343.78199994461016 L 326.09232587970666 340.6390676210169 Z " fill-rule="evenodd" fill="rgb(46,46,46)" stroke-width="1" stroke="rgba(0,0,0,0)" stroke-linejoin="miter" stroke-linecap="square"/></svg>