<?xml version="1.0" standalone="no"?><!-- Generator: Gravit.io --><svg xmlns="http://www.w3.org/2000/svg" xmlns:xlink="http://www.w3.org/1999/xlink" style="isolation:isolate" width="500" height="500"><circle vector-effect="non-scaling-stroke" cx="0" cy="0" r="1" fill="rgb(250,250,250)" transform="matrix(250,0,0,250,250,250)" stroke-width="0" stroke="rgba(0,0,0,0)"/><path d=" M 137.349609375 268.1640625 Q 143.70703125 268.017578125 140.923828125 263.740234375 L 131.9296875 249.35546875 L 124.72265625 256.357421875 L 124.751953125 264.970703125 Q 124.751953125 266.875 125.396484375 267.34375 Q 126.509765625 268.1640625 129.615234375 268.1640625 L 129.615234375 271.38671875 L 113.208984375 271.38671875 L 113.208984375 268.1640625 Q 115.9921875 268.1640625 116.841796875 267.6220703125 Q 117.69140625 267.080078125 117.92578125 266.46484375 Q 118.16015625 265.849609375 118.16015625 264.970703125 L 118.130859375 233.857421875 Q 118.130859375 231.953125 117.486328125 231.484375 Q 116.314453125 230.6640625 113.208984375 230.6640625 L 113.208984375 227.44140625 L 129.615234375 227.44140625 L 129.615234375 230.6640625 Q 126.83203125 230.6640625 126.01171875 231.2060546875 Q 125.19140625 231.748046875 124.95703125 232.36328125 Q 124.72265625 232.978515625 124.72265625 233.857421875 L 124.72265625 251.376953125 L 142.154296875 233.916015625 Q 143.765625 232.36328125 142.564453125 231.513671875 Q 141.36328125 230.6640625 138.580078125 230.6640625 L 138.580078125 227.44140625 L 154.25390625 227.44140625 L 154.25390625 230.6640625 Q 152.291015625 230.78125 151.0166015625 231.4111328125 Q 149.7421875 232.041015625 148.27734375 233.505859375 L 136.236328125 245.1953125 L 148.365234375 263.798828125 Q 149.830078125 266.142578125 151.4853515625 267.1533203125 Q 153.140625 268.1640625 155.337890625 268.1640625 Q 155.54296875 268.1640625 155.71875 268.1640625 L 155.71875 271.38671875 L 137.349609375 271.38671875 L 137.349609375 268.1640625 Z  M 159.234375 268.1640625 Q 162.017578125 268.1640625 162.8671875 267.6220703125 Q 163.716796875 267.080078125 163.951171875 266.46484375 Q 164.185546875 265.849609375 164.185546875 264.970703125 L 164.15625 233.857421875 Q 164.15625 231.953125 163.482421875 231.484375 Q 162.33984375 230.6640625 159.234375 230.6640625 L 159.234375 227.44140625 L 175.69921875 227.44140625 L 175.69921875 230.6640625 Q 172.916015625 230.6640625 172.06640625 231.2060546875 Q 171.216796875 231.748046875 170.982421875 232.36328125 Q 170.748046875 232.978515625 170.748046875 233.857421875 L 170.77734375 264.970703125 Q 170.77734375 266.875 171.451171875 267.34375 Q 172.59375 268.1640625 175.69921875 268.1640625 L 175.69921875 271.38671875 L 159.234375 271.38671875 L 159.234375 268.1640625 Z  M 179.9765625 268.10546875 Q 182.84765625 268.10546875 183.697265625 267.548828125 Q 184.546875 266.9921875 184.7958984375 266.3623046875 Q 185.044921875 265.732421875 185.044921875 264.853515625 L 185.044921875 233.974609375 Q 185.044921875 232.0703125 184.341796875 231.572265625 Q 183.169921875 230.72265625 179.9765625 230.72265625 L 179.9765625 227.44140625 L 190.083984375 227.44140625 L 215.220703125 259.345703125 L 215.220703125 233.974609375 Q 215.220703125 232.041015625 214.546875 231.572265625 Q 213.375 230.72265625 210.2109375 230.72265625 L 210.2109375 227.44140625 L 224.9765625 227.44140625 L 224.9765625 230.72265625 Q 222.10546875 230.72265625 221.255859375 231.279296875 Q 220.40625 231.8359375 220.1572265625 232.4658203125 Q 219.908203125 233.095703125 219.908203125 233.974609375 L 219.908203125 271.38671875 L 216.3046875 271.38671875 L 189.732421875 237.666015625 L 189.732421875 264.853515625 Q 189.732421875 266.7578125 190.435546875 267.255859375 Q 191.607421875 268.10546875 194.830078125 268.10546875 L 194.830078125 271.38671875 L 179.9765625 271.38671875 L 179.9765625 268.10546875 Z  M 231.744140625 262.5244140625 Q 231.744140625 262.5244140625 231.01171875 261.27197265625 Q 230.279296875 260.01953125 229.458984375 256.7529296875 Q 228.638671875 253.486328125 228.638671875 250.0732421875 Q 228.638671875 246.66015625 229.1806640625 243.90625 Q 229.72265625 241.15234375 230.8359375 238.6328125 Q 233.208984375 233.271484375 238.072265625 230.0634765625 Q 242.935546875 226.85546875 250.025390625 226.85546875 Q 257.115234375 226.85546875 261.83203125 230.37109375 Q 266.548828125 233.88671875 266.548828125 238.955078125 Q 266.548828125 242.412109375 263.794921875 243.61328125 Q 262.9453125 243.994140625 261.978515625 243.994140625 Q 260.103515625 243.994140625 258.931640625 242.822265625 Q 257.759765625 241.650390625 257.759765625 240.09765625 Q 257.759765625 236.9921875 260.25 235.8203125 Q 259.078125 233.359375 256.265625 231.9384765625 Q 253.453125 230.517578125 250.494140625 230.517578125 Q 244.25390625 230.517578125 240.3134765625 235.17578125 Q 236.373046875 239.833984375 236.373046875 249.1357421875 Q 236.373046875 258.4375 240.474609375 263.30078125 Q 244.576171875 268.1640625 250.435546875 268.1640625 Q 255.2109375 268.1640625 257.8330078125 265.76171875 Q 260.455078125 263.359375 260.455078125 260.4736328125 Q 260.455078125 257.587890625 259.13671875 256.8408203125 Q 257.818359375 256.09375 253.1015625 256.09375 L 253.1015625 252.197265625 L 266.51953125 252.197265625 L 266.51953125 271.38671875 L 262.59375 271.38671875 L 261.509765625 267.87109375 Q 258.990234375 270.5078125 253.716796875 271.5625 Q 251.783203125 271.97265625 249.322265625 271.97265625 Q 246.861328125 271.97265625 244.3271484375 271.4306640625 Q 241.79296875 270.888671875 239.478515625 269.74609375 Q 237.1640625 268.603515625 235.1865234375 266.81640625 Q 233.208984375 265.029296875 231.744140625 262.5244140625 Z  M 273.609375 268.10546875 Q 276.48046875 268.10546875 277.330078125 267.548828125 Q 278.1796875 266.9921875 278.4287109375 266.3623046875 Q 278.677734375 265.732421875 278.677734375 264.853515625 L 278.677734375 233.974609375 Q 278.677734375 232.0703125 277.974609375 231.572265625 Q 276.802734375 230.72265625 273.609375 230.72265625 L 273.609375 227.44140625 L 283.716796875 227.44140625 L 308.853515625 259.345703125 L 308.853515625 233.974609375 Q 308.853515625 232.041015625 308.1796875 231.572265625 Q 307.0078125 230.72265625 303.84375 230.72265625 L 303.84375 227.44140625 L 318.609375 227.44140625 L 318.609375 230.72265625 Q 315.73828125 230.72265625 314.888671875 231.279296875 Q 314.0390625 231.8359375 313.7900390625 232.4658203125 Q 313.541015625 233.095703125 313.541015625 233.974609375 L 313.541015625 271.38671875 L 309.9375 271.38671875 L 283.365234375 237.666015625 L 283.365234375 264.853515625 Q 283.365234375 266.7578125 284.068359375 267.255859375 Q 285.240234375 268.10546875 288.462890625 268.10546875 L 288.462890625 271.38671875 L 273.609375 271.38671875 L 273.609375 268.10546875 Z  M 322.359375 268.1640625 Q 325.142578125 268.1640625 325.9921875 267.6220703125 Q 326.841796875 267.080078125 327.076171875 266.46484375 Q 327.310546875 265.849609375 327.310546875 264.970703125 L 327.28125 233.857421875 Q 327.28125 231.953125 326.607421875 231.484375 Q 325.46484375 230.6640625 322.359375 230.6640625 L 322.359375 227.44140625 L 338.82421875 227.44140625 L 338.82421875 230.6640625 Q 336.041015625 230.6640625 335.19140625 231.2060546875 Q 334.341796875 231.748046875 334.107421875 232.36328125 Q 333.873046875 232.978515625 333.873046875 233.857421875 L 333.90234375 264.970703125 Q 333.90234375 266.875 334.576171875 267.34375 Q 335.71875 268.1640625 338.82421875 268.1640625 L 338.82421875 271.38671875 L 322.359375 271.38671875 L 322.359375 268.1640625 Z  M 367.388671875 268.1640625 Q 373.74609375 268.017578125 370.962890625 263.740234375 L 361.96875 249.35546875 L 354.76171875 256.357421875 L 354.791015625 264.970703125 Q 354.791015625 266.875 355.435546875 267.34375 Q 356.548828125 268.1640625 359.654296875 268.1640625 L 359.654296875 271.38671875 L 343.248046875 271.38671875 L 343.248046875 268.1640625 Q 346.03125 268.1640625 346.880859375 267.6220703125 Q 347.73046875 267.080078125 347.96484375 266.46484375 Q 348.19921875 265.849609375 348.19921875 264.970703125 L 348.169921875 233.857421875 Q 348.169921875 231.953125 347.525390625 231.484375 Q 346.353515625 230.6640625 343.248046875 230.6640625 L 343.248046875 227.44140625 L 359.654296875 227.44140625 L 359.654296875 230.6640625 Q 356.87109375 230.6640625 356.05078125 231.2060546875 Q 355.23046875 231.748046875 354.99609375 232.36328125 Q 354.76171875 232.978515625 354.76171875 233.857421875 L 354.76171875 251.376953125 L 372.193359375 233.916015625 Q 373.8046875 232.36328125 372.603515625 231.513671875 Q 371.40234375 230.6640625 368.619140625 230.6640625 L 368.619140625 227.44140625 L 384.29296875 227.44140625 L 384.29296875 230.6640625 Q 382.330078125 230.78125 381.0556640625 231.4111328125 Q 379.78125 232.041015625 378.31640625 233.505859375 L 366.275390625 245.1953125 L 378.404296875 263.798828125 Q 379.869140625 266.142578125 381.5244140625 267.1533203125 Q 383.1796875 268.1640625 385.376953125 268.1640625 Q 385.58203125 268.1640625 385.7578125 268.1640625 L 385.7578125 271.38671875 L 367.388671875 271.38671875 L 367.388671875 268.1640625 Z " fill-rule="evenodd" fill="rgb(46,46,46)" stroke-width="1" stroke="rgba(0,0,0,0)" stroke-linejoin="miter" stroke-linecap="square"/><line x1="113.89203960905351" y1="220" x2="386.10796039094646" y2="220" stroke-width="2" stroke="rgb(46,46,46)" stroke-linejoin="miter" stroke-linecap="square"/><line x1="113.89203960905351" y1="280" x2="386.10796039094646" y2="280" stroke-width="2" stroke="rgb(46,46,46)" stroke-linejoin="miter" stroke-linecap="square"/><path d=" M 250 296 L 255.8825529255335 312.9233525134745 L 273.7954264353333 313.28838927729265 L 259.5181705741333 324.112633098034 L 264.7063823138337 341.2615907386914 L 250 331.0279888089511 L 235.29361768616627 341.26159073869144 L 240.4818294258667 324.11263309803405 L 226.2045735646667 313.2883892772927 L 244.1174470744665 312.9233525134745 L 250 296 Z " fill="rgb(70,70,70)" stroke-width="1" stroke="rgba(0,0,0,0)" stroke-linejoin="miter" stroke-linecap="square"/><path d=" M 210.69921875 197.4765625 L 224.4296875 178.9609375 L 227.9453125 178.9609375 L 227.9453125 196.34375 Q 227.9453125 197.3984375 228.53125 197.4765625 Q 228.74609375 197.515625 229.01953125 197.515625 L 232.10546875 197.515625 L 232.10546875 199.83984375 L 228.921875 199.83984375 Q 228.31640625 199.83984375 228.130859375 200.083984375 Q 227.9453125 200.328125 227.9453125 201.08984375 L 227.9453125 204.09765625 Q 227.9453125 205.328125 228.453125 205.62109375 Q 229.3125 206.1484375 231.65625 206.1484375 L 231.65625 208.2578125 L 219.17578125 208.2578125 L 219.17578125 206.1484375 Q 222.203125 206.1484375 222.798828125 205.845703125 Q 223.39453125 205.54296875 223.521484375 205.103515625 Q 223.6484375 204.6640625 223.6484375 203.921875 L 223.6484375 199.83984375 L 212.125 199.83984375 L 210.69921875 197.4765625 Z  M 223.62890625 197.515625 L 223.6484375 198.08203125 L 223.6484375 184.68359375 L 214.29296875 197.515625 L 223.62890625 197.515625 Z  M 247.96484375 208.6484375 Q 242.984375 208.6484375 239.76171875 204.634765625 Q 236.5390625 200.62109375 236.5390625 193.4140625 Q 236.5390625 186.20703125 239.99609375 182.1640625 Q 243.08203125 178.5703125 247.96484375 178.5703125 Q 252.84765625 178.5703125 255.93359375 182.1640625 Q 259.390625 186.20703125 259.390625 193.4140625 Q 259.390625 200.62109375 256.16796875 204.634765625 Q 252.9453125 208.6484375 247.96484375 208.6484375 Z  M 247.96484375 206.3046875 Q 250.4453125 206.3046875 252.10546875 203.82421875 Q 254.1953125 200.6796875 254.1953125 193.853515625 Q 254.1953125 187.02734375 252.45703125 183.970703125 Q 250.71875 180.9140625 247.96484375 180.9140625 Q 243.6484375 180.9140625 242.2421875 187.6328125 Q 241.734375 190.015625 241.734375 193.033203125 Q 241.734375 196.05078125 242.0078125 198.033203125 Q 242.28125 200.015625 242.75 201.4609375 Q 243.5703125 204.078125 244.986328125 205.19140625 Q 246.40234375 206.3046875 247.96484375 206.3046875 Z  M 273.84375 196.578125 L 264.68359375 196.578125 L 264.68359375 193.39453125 L 273.84375 193.39453125 L 273.84375 184.234375 L 277.02734375 184.234375 L 277.02734375 193.39453125 L 286.1875 193.39453125 L 286.1875 196.578125 L 277.02734375 196.578125 L 277.02734375 205.73828125 L 273.84375 205.73828125 L 273.84375 196.578125 Z " fill-rule="evenodd" fill="rgb(46,46,46)" stroke-width="1" stroke="rgba(0,0,0,0)" stroke-linejoin="miter" stroke-linecap="square"/><path d=" M 140 250 C 140 189.28934675472362 189.2893467547236 140 249.99999999999997 140 C 310.7106532452764 140 360 189.2893467547236 360 249.99999999999997 C 360.00000000000006 310.7106532452763 310.7106532452764 360 250.00000000000003 360 C 189.28934675472365 360.00000000000006 140 310.7106532452764 140 250 Z " fill="none" stroke="none"/><mask id="_mask_33CxgWGE5ZJIgngmeF4xFTiRTvCYza7I"><path d=" M 140 250 C 140 189.28934675472362 189.2893467547236 140 249.99999999999997 140 C 310.7106532452764 140 360 189.2893467547236 360 249.99999999999997 C 360.00000000000006 310.7106532452763 310.7106532452764 360 250.00000000000003 360 C 189.28934675472365 360.00000000000006 140 310.7106532452764 140 250 Z " fill="white" stroke="none"/></mask><path d=" M 140 250 C 140 189.28934675472362 189.2893467547236 140 249.99999999999997 140 C 310.7106532452764 140 360 189.2893467547236 360 249.99999999999997 C 360.00000000000006 310.7106532452763 310.7106532452764 360 250.00000000000003 360 C 189.28934675472365 360.00000000000006 140 310.7106532452764 140 250 Z " fill="none" stroke="none" stroke-width="0" mask="url(#_mask_33CxgWGE5ZJIgngmeF4xFTiRTvCYza7I)"/><path d=" M 171.53246195817982 189.97021652477267 Q 172.19664076910726 189.74341420657714 173.0222302528839 189.15673035571547 Q 173.84781973666054 188.5700465048538 174.45301801328475 187.8286668049377 Q 175.36699092083967 186.70903215608485 175.45977155086675 185.80778686168352 Q 175.55255218089383 184.9065415672822 174.72795639221167 184.23341287185323 Q 174.1832692657427 183.78877740331302 173.56586824462914 183.75751849146627 Q 172.9484672235156 183.72625957961952 172.23828075153764 183.9785364074715 Q 171.52809427955967 184.23081323532347 170.24867900347948 184.8252200675864 Q 168.60459871889333 185.5883766949275 167.0889648241045 185.70001161974878 Q 165.57333092931563 185.81164654457007 164.43100098352656 184.87914715915934 Q 163.38701732446106 184.02692917779058 163.1697066323619 182.94188644719287 Q 162.9523959402628 181.85684371659517 163.36136323861413 180.75357822089336 Q 163.77033053696545 179.65031272519153 164.59784654785977 178.63658946204097 Q 165.36978312518656 177.690952089699 166.10335728686212 177.15521725815026 Q 166.83693144853768 176.61948242660148 167.3816137541693 176.4464083404391 L 168.43517400658914 177.87372449535832 Q 167.7387281262085 178.12461171685015 167.16371009907868 178.51244084872258 Q 166.58869207194883 178.900269980595 165.90321239128264 179.73999596723468 Q 165.43387495226796 180.31494348961857 165.17759441901413 180.9377498745874 Q 164.9213138857603 181.56055625955622 164.985852845504 182.1300960076662 Q 165.05039180524773 182.69963575577614 165.51942794192934 183.08251629813023 Q 166.07168016737702 183.53332725928908 166.61767675378553 183.61345078090852 Q 167.163673340194 183.693574302528 167.84367715225895 183.48599326536836 Q 168.52368096432392 183.27841222820874 169.77360838367116 182.73557148243685 Q 171.06336797145033 182.17482132598724 172.04010637321647 181.88170658251553 Q 173.01684477498264 181.58859183904383 174.03040774529202 181.6596027729019 Q 175.0439707156014 181.73061370675998 175.88369670224105 182.41609338742617 Q 176.92011526232784 183.26213587617633 177.23152568606824 184.31684047485714 Q 177.54293610980864 185.371545073538 177.18314195481906 186.5149512712608 Q 176.82334779982952 187.65835746898358 175.88467292180016 188.8082525137514 Q 175.30417661565042 189.51937181775256 174.65790962581937 190.09486108173132 Q 174.01164263598832 190.67035034571006 173.462021382513 191.03478937746624 Q 172.91240012903768 191.3992284092224 172.5895739625019 191.50128191985206 L 171.53246195817982 189.97021652477267 Z  M 171.15166802427692 171.44644366865043 L 172.7693163099533 169.98845154524753 L 178.22789822420958 176.05935719075808 Q 179.56820488473693 177.54643296907045 180.6280224553712 178.10967381127986 Q 181.6878400260055 178.67291465348927 182.565287005323 178.48682248905243 Q 183.4427339846405 178.30073032461559 184.3422334798148 177.4900082470283 Q 185.14017658037267 176.77081930723315 185.36569985892038 175.95622706376963 Q 185.5912231374681 175.1416348203061 185.1193398234299 174.04191334042775 Q 184.6474565093917 172.9421918605494 183.32022601140608 171.4696241386108 L 177.8543900689629 165.40525657437112 L 179.4647843264524 163.95380253223908 L 185.296752820064 170.42439567494458 Q 187.35624842038652 172.7094145538148 187.41548289636324 174.831825677937 Q 187.47471737233997 176.9542368020592 185.42908142363711 178.79797572044316 Q 183.21660282663578 180.792090508057 181.1295094989654 180.50396915387046 Q 179.04241617129503 180.2158477996839 176.96402227407594 177.89527472679526 L 171.15166802427692 171.44644366865043 Z  M 185.59607445439474 159.38594386042658 Q 186.02696251390336 159.09919903370528 186.92675602879444 158.40656687567247 Q 187.89158925078118 157.67065247964402 188.48507657802887 157.27570205793356 Q 190.55821724170235 155.89608072182168 192.33209089891184 156.12912270452446 Q 194.10596455612134 156.36216468722728 195.46935505298484 158.4109154607399 Q 196.36746149139492 159.76048938297438 196.45982165684907 161.0714787025871 Q 196.5521818223032 162.3824680221998 195.8239538048973 163.5885022778018 Q 195.09572578749138 164.79453653340386 193.56729267074385 165.811669126302 Q 192.89250570962662 166.26072234550708 192.2529873732202 166.6393837529181 L 191.93863848476647 166.83684442001055 L 194.789855912731 171.12133512493574 L 192.9768740774401 172.32782750906495 L 184.74242829876448 159.95402323411972 L 185.59607445439474 159.38594386042658 Z  M 192.5743172678023 164.5486887675844 Q 193.46861324036732 163.95355799514397 193.97430714366982 163.27685125734143 Q 194.48000104697235 162.60014451953887 194.4590871161129 161.68736342449654 Q 194.43817318525342 160.77458232945418 193.6753237405798 159.62825749189355 Q 192.7393453439235 158.22177382595038 191.58974088785882 158.03664626968464 Q 190.44013643179414 157.8515187134189 189.02552280246402 158.79290738982465 Q 187.952367635386 159.50706431675314 187.43728573321712 160.07271488206413 L 191.024301207108 165.46288060761518 Q 191.68002129523725 165.14381954002482 192.5743172678023 164.5486887675844 Z  M 205.67695710007916 148.0491624580965 L 206.3948539685346 149.56770589966087 L 200.6296861351536 152.29320970838987 L 202.63311925642455 156.53100535926717 L 206.86208616636253 154.53174605699888 L 207.57998303481793 156.05028949856325 L 203.35101612487995 158.04954880083153 L 205.53392346326473 162.66698031209995 L 211.94358938521668 159.63678771617765 L 212.67400771068003 161.18181738056 L 204.29553255925805 165.14277161407273 L 197.9429800372281 151.70542790441596 L 205.67695710007916 148.0491624580965 Z  M 225.35578361996755 155.415939311197 Q 225.86361145396643 155.876979907348 226.28589985763162 156.24421164567912 L 223.96039055755452 157.07870576018183 Q 223.74994980648648 156.92596349581757 223.44926432784615 156.60847342766692 L 223.0854247380741 156.23064305144274 Q 222.77884591877935 155.92564311536552 222.06484491472455 155.09244662553158 Q 221.30937166797537 154.20150477256902 220.75901641513533 153.6364084060875 Q 220.2086611622953 153.07131203960597 219.59913020658516 152.68826833527947 Q 218.98959925087502 152.305224630953 218.40629915535942 152.32778193184336 Q 217.8705835013059 152.54077075143158 215.97708581033402 153.2202402675879 L 218.11444623008794 159.17648543142178 L 216.06468902092905 159.91202767463955 L 211.04453075107494 145.92220492872113 L 211.93612917837726 145.60226054489993 Q 212.43248294203005 145.4241471765871 213.35614301754953 145.02007026396134 Q 214.79713527439463 144.40960132316638 215.44974855623445 144.17541522779212 Q 217.6925322290361 143.3706066746749 219.29648246253845 143.87926291250568 Q 220.9004326960408 144.38791915033647 221.6227813564206 146.4009094140396 Q 222.16371825277807 147.90835417772595 221.85613904796293 149.11851352553273 Q 221.5485598431478 150.3286728733395 220.48697684574444 151.18688097973438 Q 221.00285524911618 151.3233970000892 221.5493415227512 151.71868854016347 Q 222.09582779638623 152.11398008023775 222.5981140151129 152.6029476108628 Q 223.1004002338396 153.09191514148785 223.8445713919312 153.89353457575595 Q 224.87953284153457 154.98506886908285 225.35578361996755 155.415939311197 Z  M 215.45593928823354 151.7679459220852 Q 215.96289168977938 151.64828136766553 217.63578770801666 151.0479733485371 Q 219.0421233716997 150.5433188049841 219.55671206460434 149.60644947041962 Q 220.071300757509 148.66958013585514 219.56334781824648 147.25405273580822 Q 219.24670183013478 146.37164604486986 218.74841745788214 145.92274385541006 Q 218.2501330856295 145.4738416659503 217.50646219639626 145.4398182089155 Q 216.76279130716298 145.40579475188073 215.68735815258188 145.79170704989187 Q 214.40051506163013 146.25348244922142 213.6418216480103 146.71249092191758 L 215.45593928823354 151.7679459220852 Z  M 234.50977628317492 141.54151228713408 L 234.3429082723265 139.8701340640464 L 245.78018832217649 138.7282523851591 L 245.94705633302493 140.39963060824678 L 241.31189695853175 140.86239828949508 L 242.62161681112127 153.98077387768328 L 240.43522087975657 154.1990605197815 L 239.12550102716708 141.0806849315933 L 234.50977628317492 141.54151228713408 Z  M 261.0897635585176 153.05915408036628 Q 261.38144200445663 153.679936831784 261.6301955789713 154.18124342926103 L 259.1625650126052 154.05806339914014 Q 259.0269741120802 153.83618366431062 258.87137344425554 153.42752716722293 L 258.6806538751483 152.93889531578185 Q 258.5148128492348 152.53950542160422 258.1757957761441 151.49591486558336 Q 257.8206798851803 150.3830761908874 257.52972379126976 149.64988497493107 Q 257.23876769735915 148.9166937589747 256.82322323481907 148.32883895968723 Q 256.4076787722789 147.74098416039973 255.86049418041853 147.53766948881287 Q 255.2840650757709 147.52845067203657 253.27484809287998 147.42815388861797 L 252.95935141494186 153.74840925227497 L 250.7843252635599 153.6398355498364 L 251.52535295464293 138.79503822964205 L 252.4714405630916 138.84226535581487 Q 252.998128510063 138.86855674564305 254.00614514463433 138.85043077385603 Q 255.57108392285437 138.84054986366652 256.2635810383168 138.87511817251468 Q 258.6434302801876 138.99391630433087 259.92877840052165 140.0798572462748 Q 261.21412652085576 141.16579818821876 261.1075003287748 143.30181041760284 Q 261.02765240411145 144.90138121951603 260.2786695239218 145.90043840481707 Q 259.52968664373213 146.89949559011808 258.21983084868907 147.28388785129152 Q 258.64364426589356 147.6081552382986 258.99627798277646 148.18309185275544 Q 259.3489116996594 148.75802846721228 259.62474273087577 149.4024646034946 Q 259.9005737620921 150.04690073977687 260.27957851235954 151.07293184515643 Q 260.8156445632198 152.47835900612526 261.0897635585176 153.05915408036628 Z  M 253.35177475200686 145.8871039697016 Q 253.86578795294236 145.9714293649372 255.640921403846 146.06004108620994 Q 257.13320392026503 146.13453335738976 257.96828794645387 145.4673299835098 Q 258.80337197264276 144.80012660962987 258.878351121412 143.29809061271138 Q 258.9250913699954 142.3617564847622 258.637559347922 141.75584739288837 Q 258.3500273258485 141.14993830101454 257.67652640072873 140.83276249647645 Q 257.003025475609 140.51558669193835 255.8618682571709 140.4586220139773 Q 254.496380987245 140.39045915145982 253.61955742618272 140.52268969499275 L 253.35177475200686 145.8871039697016 Z  M 273.6895523816015 152.73064077196614 L 267.7245302328679 151.53340368585444 L 265.6825088999934 154.9582982019881 L 263.42288574252774 154.50477018862955 L 271.95096524333474 140.89736716995327 L 274.0095202384836 141.31053887703837 L 276.4923162931239 157.1279300964024 L 274.184819763678 156.66479343869304 L 273.6895523816015 152.73064077196614 Z  M 273.4723776078703 151.03362800549417 L 272.6799022386113 144.80869687992163 L 272.5410767391447 143.3664587742668 L 271.8469055661557 144.64150646821744 L 268.6084430146814 150.05738973945125 L 273.4723776078703 151.03362800549417 Z  M 285.9550817051047 144.78872235261778 L 281.62149589594765 159.00621733419854 L 279.51035669368923 158.3627282455852 L 283.8439425028463 144.14523326400445 L 285.9550817051047 144.78872235261778 Z  M 302.9296324989953 152.11795861640167 L 296.57707997696525 165.55530232605838 L 294.74953060252443 164.69132179251028 L 293.22350678630846 153.52442333251227 L 293.0267639864619 150.74173217824898 L 292.0308206610348 153.12260561426325 L 288.05734497051407 161.52756698850322 L 286.2474530779519 160.67193409296038 L 292.60000559998196 147.23459038330367 L 294.4010687516048 148.08604945984382 L 295.953891005446 159.6760902745919 L 296.10954560632683 162.18011054226898 L 297.0419194408462 159.88800561858199 L 301.11974060643314 151.26232572085885 L 302.9296324989953 152.11795861640167 Z  M 310.2510279872335 156.5623283309505 L 302.6269805857802 169.32128717315211 L 300.7324177090801 168.18920129093894 L 308.35646511053335 155.43024244873732 L 310.2510279872335 156.5623283309505 Z  M 324.976243275918 167.74875057156203 L 315.57714351038703 179.26283121719752 L 314.01116802178876 177.98450424514434 L 315.21685702738546 166.77849318298007 L 315.6954408323974 164.03021457066893 L 314.1558919688281 166.1015066124785 L 308.27682299590725 173.3034808402347 L 306.7259777052665 172.03750485341877 L 316.12507747079746 160.5234242077833 L 317.66835766245947 161.7832247019806 L 316.38686701590893 173.40639487032774 L 315.93545345008397 175.8743032252514 L 317.3919416968911 173.8738762869707 L 323.42539798527724 166.4827745847461 L 324.976243275918 167.74875057156203 Z  M 331.79836812673136 185.85209276993783 L 326.959931326076 190.21299297760478 Q 326.82191567247185 190.07445049513788 326.62403064656917 189.95700142982892 Q 326.42614562066643 189.83955236451996 326.0754261908411 189.669224540668 Q 325.2062396179226 189.22997084503842 324.45168560216234 188.7136920679905 Q 323.69713158640207 188.19741329094256 322.8079525335644 187.21086545752559 Q 321.3695746539741 185.61497925640987 321.0481685224086 183.8143187288788 Q 320.72676239084313 182.0136582013477 321.44666052333815 180.26705166597645 Q 322.1665586558331 178.52044513060525 323.77695291332265 177.0689910884732 Q 325.6122220446057 175.41485652694433 327.50095755124016 174.92861374928853 Q 329.38969305787464 174.4423709716327 331.0781255292108 175.0174992343346 Q 332.766558000547 175.5926274970365 334.0807123359908 177.0506871626013 Q 334.83259168214033 177.8849004040936 335.2111790079611 178.45080916169763 Q 335.5897663337819 179.01671791930167 335.98080843425504 179.74230985604393 Q 336.25846075334874 180.25457662867564 336.430693266166 180.53318804646818 L 334.9145068160794 181.7682640187723 Q 334.6837692826339 180.88504218461327 334.21207508664895 180.04808673134826 Q 333.740380890664 179.21113127808326 332.72697829367996 178.08675690911537 Q 331.8574134846549 177.12197116025905 330.6664020187672 176.82159090368964 Q 329.47539055287956 176.52121064712023 328.13211203722904 176.95624971184793 Q 326.7888335215786 177.39128877657564 325.4831084479385 178.56814340533134 Q 324.1701293461115 179.7515361153579 323.487291597845 181.05061504026816 Q 322.8044538495786 182.34969396517837 322.90628716705874 183.65147457656417 Q 323.00812048453895 184.95325518794996 324.021523081523 186.07762955691786 Q 324.60341231463 186.72323806555102 325.2676016719989 187.24865529710254 Q 325.93179102936773 187.77407252865407 326.4029651507061 187.8884214087323 L 329.1377337771635 185.4235647696162 L 327.42098763156343 183.32920390532652 L 328.5816321414658 182.28311090198812 L 331.79836812673136 185.85209276993783 Z " fill-rule="evenodd" fill="rgb(46,46,46)" stroke-width="0" stroke="rgba(0,0,0,0)" stroke-linejoin="miter" stroke-linecap="square"/><path d=" M 189.91024385010752 340.89013873760956 L 187.92187352171698 349.58773312434266 L 186.96637875829458 352.69124833673914 L 189.212915435466 350.35905976444553 L 195.82891651963223 344.4262206071719 L 198.3355498456774 345.9237963564625 L 192.23821531363714 359.59488233844127 L 190.36033616636587 358.47295268010987 L 194.31883034531796 350.0764654857193 L 196.1292440267689 346.4940261532513 L 193.22060637972626 349.42033698017735 L 185.7414100829015 355.8840344318663 L 184.7354033968633 355.28300068633166 L 186.76539681098117 345.5637037796631 L 187.87498058670957 341.57393282891724 L 185.60010573298695 344.8675063577521 L 180.1661350811788 352.38247739202507 L 178.35031443176393 351.309000039113 L 187.26947629925724 339.312425155581 L 189.91024385010752 340.89013873760956 Z  M 204.83949594175203 361.11026807818484 L 199.21710150114004 358.7857150825705 L 196.5532194028499 361.7527819400858 L 194.42338780094872 360.87221290803933 L 205.4143927314319 349.1637814373913 L 207.35470541960456 349.9659947504846 L 206.74211719330086 365.96533464000333 L 204.56716204051196 365.06610948439646 L 204.83949594175203 361.11026807818484 Z  M 204.95349547401156 359.4032176048365 L 205.37574573725982 353.1422680407376 L 205.51751710873805 351.7003165329072 L 204.5905959518132 352.8176514907882 L 200.36894270381754 357.50775545110923 L 204.95349547401156 359.4032176048365 Z  M 215.02345452636166 353.11056621681246 Q 215.5561223209362 353.27216388394754 216.51047255124143 353.4902532199385 Q 216.64413828442 353.5205988259967 217.2675791828967 353.66891419475195 Q 217.8910200813734 353.8172295635072 218.43303292497555 353.9816622774341 Q 221.80659562394754 355.00511416928964 222.95471808298328 357.2923994304658 Q 224.102840542019 359.579684691642 223.0992339777064 362.8878320474206 Q 222.37913209257815 365.261474500437 221.03370164505216 366.7361519283512 Q 219.6882711975262 368.21082935626544 217.87643104799938 368.66636901162406 Q 216.06459089847257 369.12190866698256 213.9806449653126 368.48969323240146 Q 213.5507727100419 368.35928107997665 212.35859671078566 367.91596460481605 Q 211.03559002514265 367.43295747456955 210.45619698542998 367.2571845734753 L 209.66186781808202 367.01620559616856 L 213.97680903526788 352.79304097612595 L 215.02345452636166 353.11056621681246 Z  M 214.59794847040874 366.9931208915132 Q 216.68672458850034 367.5757760341643 218.31707297751421 366.52430461923126 Q 219.9474213665281 365.47283320429824 220.83762605916698 362.5384878096245 Q 221.46700644695625 360.46388692549215 221.28336472861403 359.05089259730767 Q 221.09972301027182 357.6378982691231 220.1549299367034 356.74916980826396 Q 219.210136863135 355.86044134740484 217.49064784205234 355.3387927377056 Q 216.38793205679278 355.00425721626806 215.61365748396867 354.93264435094625 L 212.23144666129934 366.0812878409008 Q 212.63947845088737 366.3173305794213 213.28554669677152 366.5592540988706 Q 213.93161494265564 366.80117761831985 214.59794847040874 366.9931208915132 Z  M 235.79154963347915 358.12715803135734 L 235.46300990067283 359.7744017114556 L 229.20923011518335 358.5270967956269 L 228.2923750468866 363.124055902878 L 232.8797571559976 364.0390008564491 L 232.55121742319128 365.6862445365474 L 227.96383531408028 364.7712995829763 L 226.96484531258199 369.780069610252 L 233.91774596229925 371.1668129010508 L 233.58347588531606 372.8427875755694 L 224.4949046503551 371.0300887009578 L 227.40209926274593 356.4538975317158 L 235.79154963347915 358.12715803135734 Z  M 247.65793035254848 358.8292842761158 L 246.9231613246126 373.6743926958003 L 244.7188285369328 373.5652877021646 L 245.45359756486863 358.7201792824801 L 247.65793035254848 358.8292842761158 Z  M 262.5077585468412 358.3261263913947 L 263.24252757477717 373.1712348110792 L 261.22351480022087 373.2711672610022 L 254.61185911400844 364.1434962004008 L 253.12613462865244 361.7824158241916 L 253.37062892852845 364.3515954526157 L 253.8302216450823 373.63710347859444 L 251.8307162403285 373.73607039760026 L 251.09594721239256 358.89096197791577 L 253.08569893224512 358.7924778243685 L 259.920527088809 368.28065083658703 L 261.2386062447397 370.4153670225036 L 260.97991499510545 367.95444345891025 L 260.50825314208737 358.42509331040054 L 262.5077585468412 358.3261263913947 Z  M 277.34704023624454 355.17111978578254 Q 278.5594848310913 354.8670176574986 279.3978849901378 354.7976859654964 Q 280.23628514918425 354.7283542734942 280.95870476580996 354.7585893155537 L 281.2618778507449 354.76309316641505 L 281.4291746817225 356.7146189311397 Q 281.0335622563574 356.6225512080492 280.68890561290607 356.57307752213467 Q 280.34424896945467 356.5236038362201 279.61951549117504 356.5644259536957 Q 278.89478201289546 356.6052480711713 277.9191430029797 356.8499552525248 Q 276.4698928232019 357.2134523277392 275.57532513817205 358.1627296735276 Q 274.6807574531423 359.112007019316 274.4284051669779 360.5143606037821 Q 274.17605288081353 361.9167141882482 274.60132070083563 363.61224217635424 Q 275.02421272298056 365.298297941063 275.9204062338711 366.4629168972491 Q 276.8165997447617 367.6275358534351 278.0651613134971 368.0896197938356 Q 279.31372288223247 368.551703734236 280.753500838613 368.1905824568988 Q 281.463917593406 368.0123976161074 282.16239342258973 367.7063222753975 Q 282.86086925177335 367.4002469346875 283.36865077785035 367.05642205689094 Q 283.87643230392734 366.71259717909436 284.0751631865996 366.4211172748757 L 284.53366120879116 368.20899169907693 Q 283.97973743277817 368.6096963694244 283.5761039119034 368.8669904333723 Q 283.1724703910286 369.12428449732016 282.5414725405084 369.39833301885517 Q 281.9104746899882 369.6723815403901 281.0863912544283 369.8790759557081 Q 279.06880767081606 370.3851209035556 277.320439219346 369.8571030167141 Q 275.5720707678759 369.3290851298726 274.3298623899814 367.88880057300935 Q 273.08765401208683 366.4485160161462 272.5435962982038 364.2793768581781 Q 271.9662774140397 361.97762657264866 272.4527188380299 360.06349421172695 Q 272.9391602620201 358.1493618508051 274.24323902639446 356.88594161662957 Q 275.54731779076883 355.62252138245407 277.34704023624454 355.17111978578254 Z  M 285.6541092437084 352.8266024714932 L 287.84660595156583 358.9601886558718 L 294.4491769866241 356.6000497709517 L 292.2566802787666 350.4664635865731 L 294.30733952781674 349.7334399496133 L 299.31030802760546 363.729419218915 L 297.25964877855534 364.4624428558748 L 295.0145584465214 358.1817241693222 L 288.41198741146314 360.54186305424224 L 290.6570777434971 366.8225817407949 L 288.606418494447 367.5556053777547 L 283.60344999465826 353.559626108453 L 285.6541092437084 352.8266024714932 Z  M 299.341603714039 347.061745680345 L 305.6832972958731 360.50421762678127 L 303.6872403577032 361.44588829004965 L 297.34554677586914 348.00341634361337 L 299.341603714039 347.061745680345 Z  M 312.2211561571685 339.61674428866155 L 319.84426749636657 352.3762624232461 L 318.1089059629507 353.4130456342934 L 307.9840405951499 348.46173558669255 L 305.5632211061209 347.0754777496204 L 306.986096014901 349.22858908435103 L 311.75429706280937 357.2095754602541 L 310.03570230749415 358.2363414422091 L 302.41259096829606 345.4768233076246 L 304.122802334561 344.45506594021566 L 314.61404622517114 349.61976386626 L 316.7805247402881 350.8849581988625 L 315.3959778134147 348.83408137277763 L 310.5025614018532 340.6435102706166 L 312.2211561571685 339.61674428866155 Z  M 327.5424715016037 341.5468643423191 L 322.8352122229521 345.40128725097776 L 324.1895710639424 349.1516826568501 L 322.4064038251595 350.61178507489734 L 317.28846235912124 335.3902138013733 L 318.91295793682605 334.06003575103364 L 332.7200617952388 342.1667011739036 L 330.89911558953247 343.65773796521455 L 327.5424715016037 341.5468643423191 Z  M 326.09232587970666 340.6390676210169 L 320.7755815723283 337.305898753563 L 319.5721462560979 336.4990117030073 L 320.1182275478617 337.8441568483516 L 322.25398284029257 343.78199994461016 L 326.09232587970666 340.6390676210169 Z " fill-rule="evenodd" fill="rgb(46,46,46)" stroke-width="1" stroke="rgba(0,0,0,0)" stroke-linejoin="miter" stroke-linecap="square"/></svg>